<svg width="712" height="509" viewBox="0 0 712 509" fill="none" xmlns="http://www.w3.org/2000/svg">
<path d="M531.422 480.865C513.853 475.351 508.651 452.957 522.068 440.342C571.382 393.948 608.841 325.315 610.314 260.612C612.48 196.646 588.906 132.524 546.111 84.8788C433.085 -41.2225 230.539 -24.3435 140.261 119.061C95.2786 189.814 89.0279 281.443 124.478 357.421C139.034 389.103 160.532 417.547 186.807 440.432C201.049 452.845 196.339 476.199 178.257 481.669C119.813 499.33 54.2026 493.101 0 463.562C53.823 504.867 126.956 518.575 192.924 502.321C215.381 496.851 237.17 488.055 257.35 476.222L278.938 463.562L256.234 450.233C186.606 409.822 142.896 332.192 147.941 251.481C149.727 217.12 160.264 183.072 178.212 153.757C242.751 47.9728 384.262 21.136 482.599 96.8013C548.075 146.88 577.722 231.811 558.701 311.897C548.008 357.823 521.398 399.596 485.032 429.581C470.433 442.062 449.515 453.716 432.839 463.495L454.493 476.222C513.897 511.542 588.928 518.977 653.623 495.311C674.719 487.675 694.52 476.958 712 463.562C657.128 493.458 590.446 499.397 531.444 480.865H531.422Z" fill="#191C1D"/>
<path d="M458.937 369.589C500.615 332.326 518.184 272.066 501.441 219.152C502.669 226.989 503.406 234.87 503.45 242.729C503.852 269.834 496.686 297.028 482.801 320.158C454.115 368.183 400.626 395.354 344.973 390.063C278.939 383.901 224.089 330.473 216.789 264.408C210.739 215.312 231.277 165.791 269.808 134.824C300.236 110.532 339.905 99.3022 378.727 103.388C347.361 95.6182 313.451 99.5031 284.185 113.122C232.415 137.101 198.505 190.618 197.233 247.462C195.291 310.334 231.746 368.295 288.56 394.886C326.98 413.06 371.762 414.31 411.387 399.128C413.217 398.369 418.307 396.181 420.071 395.444C421.946 394.528 426.522 392.184 428.487 391.224C431.567 389.416 436.367 386.803 439.225 384.816C446.056 380.44 452.931 374.992 458.981 369.589H458.937Z" fill="#191C1D"/>
</svg>
