<svg width="528" height="33" viewBox="0 0 528 33" fill="none" xmlns="http://www.w3.org/2000/svg">
<path d="M33.5881 30.389C32.4777 30.0405 32.1489 28.6252 32.9969 27.8281C36.1137 24.8961 38.4813 20.5587 38.5745 16.4698C38.7113 12.4273 37.2213 8.37504 34.5165 5.36403C27.3728 -2.60511 14.5711 -1.53842 8.86511 7.52422C6.02201 11.9956 5.62694 17.7862 7.86756 22.5877C8.78751 24.5899 10.1463 26.3875 11.807 27.8337C12.7072 28.6182 12.4095 30.0941 11.2666 30.4398C7.57267 31.5558 3.42583 31.1622 0 29.2955C3.40184 31.9058 8.02418 32.7721 12.1936 31.7449C13.613 31.3992 14.9901 30.8433 16.2656 30.0955L17.63 29.2955L16.1951 28.4531C11.7943 25.8993 9.03161 20.9933 9.35049 15.8927C9.46336 13.7212 10.1293 11.5695 11.2638 9.71687C15.3429 3.0317 24.287 1.33572 30.5023 6.11749C34.6407 9.28229 36.5144 14.6496 35.3123 19.7108C34.6364 22.6131 32.9546 25.253 30.6561 27.148C29.7319 27.9367 28.4113 28.6732 27.3573 29.2912L28.7259 30.0955C32.4805 32.3276 37.2227 32.7975 41.3103 31.3019C42.6437 30.8193 43.8952 30.142 45 29.2955C41.5318 31.1847 37.3173 31.5601 33.5881 30.389Z" fill="white"/>
<path d="M23.9342 6.5323C21.482 6.27409 18.9733 6.98381 17.0501 8.51894C14.6162 10.476 13.3167 13.6055 13.6991 16.7082C14.1605 20.8833 17.6272 24.2597 21.8009 24.6491C25.3184 24.9849 28.6991 23.2664 30.5122 20.2314C31.3884 18.771 31.8413 17.0511 31.8173 15.3381C31.8159 14.8415 31.7693 14.3448 31.6903 13.8482C32.75 17.1922 31.6381 21.0004 29.0038 23.3553C28.6215 23.6967 28.1869 24.041 27.7551 24.3175C27.5731 24.4431 27.2698 24.6096 27.0751 24.7225C26.9509 24.7832 26.6616 24.9313 26.5431 24.9892C26.4331 25.0357 26.1114 25.174 25.9942 25.222C23.4898 26.1814 20.6594 26.1024 18.2311 24.9539C14.6388 23.2734 12.3361 19.6106 12.4588 15.6373C12.5393 12.0435 14.6825 8.66145 17.9546 7.14748C19.8043 6.28538 21.9476 6.04128 23.93 6.5323H23.9342Z" fill="white"/>
<path d="M61.7999 26.0025C61.2854 26.0025 60.8187 25.8829 60.388 25.6316C59.9573 25.3804 59.6223 25.0453 59.371 24.6146C59.1198 24.1839 59 23.7173 59 23.2028V13.8343C59 13.3198 59.1198 12.8532 59.371 12.4225C59.6223 11.9918 59.9573 11.6567 60.388 11.4055C60.8187 11.1542 61.2854 11.0346 61.7999 11.0346H71.1683C71.6828 11.0346 72.1495 11.1542 72.5682 11.4055C72.987 11.6567 73.3339 11.9918 73.5852 12.4225C73.8365 12.8532 73.968 13.3198 73.968 13.8343V23.2028C73.968 23.7173 73.8365 24.1839 73.5852 24.6146C73.3339 25.0453 72.987 25.3804 72.5682 25.6316C72.1495 25.8829 71.6708 26.0025 71.1683 26.0025H61.7999ZM61.8596 23.4779H71.0606C71.1683 23.4779 71.264 23.4421 71.3358 23.3703C71.4076 23.2985 71.4554 23.2147 71.4554 23.0951V13.8942C71.4554 13.7865 71.4196 13.6908 71.3358 13.619C71.264 13.5472 71.1683 13.5113 71.0606 13.5113H61.8596C61.7639 13.5113 61.6802 13.5472 61.5965 13.619C61.5247 13.6908 61.4768 13.7745 61.4768 13.8942V23.0951C61.4768 23.2027 61.5127 23.2985 61.5965 23.3703C61.6682 23.4421 61.7639 23.4779 61.8596 23.4779Z" fill="white"/>
<path d="M101.236 26.004V11.024C103.043 11.024 104.754 11.8257 105.914 13.2136L109.695 17.7243L113.464 13.2136C114.625 11.8257 116.348 11.024 118.154 11.024H118.166V26.004H118.142C116.766 26.004 115.642 24.8913 115.642 23.5033V14.5178L109.695 21.6129L103.725 14.5417V23.5153C103.725 24.8912 102.612 26.0159 101.224 26.0159L101.236 26.004Z" fill="white"/>
<path d="M145.554 26.004V11.024H159.313C159.313 12.412 158.189 13.5366 156.801 13.5366H148.078V17.2457H152.434V19.7823H148.078V23.4914H156.801C158.189 23.4914 159.313 24.6161 159.313 26.004H145.554Z" fill="white"/>
<path d="M189.237 26.0037C188.723 26.0037 188.256 25.884 187.825 25.6328C187.395 25.3815 187.06 25.0465 186.808 24.6158C186.557 24.185 186.437 23.7184 186.437 23.2039V13.8355C186.437 13.321 186.557 12.8544 186.808 12.4236C187.06 11.9929 187.395 11.6579 187.825 11.4066C188.256 11.1554 188.723 11.0357 189.237 11.0357H198.606C199.12 11.0357 199.587 11.1554 200.006 11.4066C200.424 11.6579 200.771 11.9929 201.023 12.4236C201.274 12.8544 201.405 13.321 201.405 13.8355V14.8525H198.893V13.9192C198.893 13.8115 198.857 13.7158 198.773 13.644C198.701 13.5722 198.606 13.5363 198.498 13.5363H189.297C189.201 13.5363 189.118 13.5722 189.034 13.644C188.962 13.7158 188.914 13.7996 188.914 13.9192V23.1202C188.914 23.2278 188.95 23.3235 189.034 23.3953C189.106 23.4671 189.201 23.503 189.297 23.503H198.498C198.606 23.503 198.701 23.4671 198.773 23.3953C198.845 23.3235 198.893 23.2398 198.893 23.1202V20.1888H197.959C196.572 20.1888 195.447 19.0641 195.447 17.6762H201.417V23.2159C201.417 23.7304 201.286 24.197 201.035 24.6277C200.783 25.0585 200.436 25.3935 200.018 25.6447C199.599 25.896 199.12 26.0156 198.618 26.0156H189.249L189.237 26.0037Z" fill="white"/>
<path d="M243.306 12.412C243.055 11.9812 242.708 11.6462 242.289 11.3949C241.87 11.1437 241.392 11.024 240.889 11.024H231.521C231.006 11.024 230.54 11.1437 230.109 11.3949C229.678 11.6462 229.343 11.9812 229.092 12.412C228.841 12.8427 228.721 13.3093 228.721 13.8238V25.992C230.097 25.992 231.222 24.8793 231.222 23.4914V13.8956C231.222 13.7879 231.257 13.6922 231.341 13.6204C231.413 13.5486 231.509 13.5127 231.604 13.5127H240.805C240.913 13.5127 241.009 13.5486 241.081 13.6204C241.152 13.6922 241.2 13.776 241.2 13.8956V23.4914C241.2 24.8673 242.313 25.992 243.701 25.992H243.725V13.8238C243.725 13.3093 243.593 12.8427 243.342 12.412H243.306Z" fill="white"/>
<path d="M304.554 26.004V11.024C305.93 11.024 307.055 12.1368 307.055 13.5247V17.2457H317.38V13.5247C317.38 12.1487 318.493 11.024 319.881 11.024V26.004C318.505 26.004 317.38 24.8913 317.38 23.5033V19.7823H307.055V23.5033C307.055 24.8793 305.942 26.004 304.554 26.004Z" fill="white"/>
<path d="M347.256 26.004V11.024H361.016C361.016 12.412 359.891 13.5366 358.503 13.5366H349.781V17.2457H358.838V19.7823H349.781V23.4914H358.503C359.891 23.4914 361.016 24.6161 361.016 26.004H347.256Z" fill="white"/>
<path d="M402.761 12.412C402.51 11.9812 402.163 11.6462 401.744 11.3949C401.325 11.1437 400.847 11.024 400.344 11.024H390.976C390.461 11.024 389.995 11.1437 389.564 11.3949C389.133 11.6462 388.798 11.9812 388.547 12.412C388.296 12.8427 388.176 13.3093 388.176 13.8238V25.992C389.552 25.992 390.677 24.8793 390.677 23.4914V13.8956C390.677 13.7879 390.712 13.6922 390.796 13.6204C390.868 13.5486 390.964 13.5127 391.059 13.5127H400.26C400.368 13.5127 400.464 13.5486 400.536 13.6204C400.607 13.6922 400.655 13.776 400.655 13.8956V23.4914C400.655 24.8673 401.768 25.992 403.156 25.992H403.18V13.8238C403.18 13.3093 403.048 12.8427 402.797 12.412H402.761Z" fill="white"/>
<path d="M430.507 26.0039V11C431.883 11 433.008 12.1127 433.008 13.5006V23.4913H442.975C444.362 23.4913 445.487 24.616 445.487 26.0039H430.507Z" fill="white"/>
<path d="M477.17 26.004V13.5366H470.924V11.024H485.904V13.5366H479.683V23.4794C479.683 24.8673 478.558 25.992 477.17 25.992V26.004Z" fill="white"/>
<path d="M512.454 26.004V11.024C513.83 11.024 514.955 12.1368 514.955 13.5247V17.2457H525.281V13.5247C525.281 12.1487 526.393 11.024 527.781 11.024V26.004C526.405 26.004 525.281 24.8913 525.281 23.5033V19.7823H514.955V23.5033C514.955 24.8793 513.842 26.004 512.454 26.004Z" fill="white"/>
<path d="M269.485 21.5991C269.485 20.7137 269.952 19.8882 270.717 19.4455L272.333 18.5122L270.729 17.591C269.964 17.1483 269.485 16.3227 269.485 15.4373L273.816 17.926V19.1105L269.485 21.6111V21.5991Z" fill="white"/>
<path d="M278.507 21.6005L274.187 19.0999V17.9274L278.507 15.4267C278.507 16.3121 278.04 17.1257 277.274 17.5684L275.659 18.5017L277.274 19.4349C278.04 19.8776 278.507 20.6912 278.507 21.5766V21.6005Z" fill="white"/>
</svg>
