<svg width="469" height="168" viewBox="0 0 469 168" fill="none" xmlns="http://www.w3.org/2000/svg">
<path d="M2.79987 167.003C2.28538 167.003 1.81869 166.883 1.38796 166.632C0.957225 166.38 0.62224 166.045 0.370979 165.615C0.119718 165.184 0 164.717 0 164.203V154.834C0 154.32 0.119718 153.853 0.370979 153.422C0.62224 152.992 0.957225 152.657 1.38796 152.405C1.81869 152.154 2.28538 152.035 2.79987 152.035H12.1683C12.6827 152.035 13.1494 152.154 13.5682 152.405C13.987 152.657 14.3339 152.992 14.5852 153.422C14.8364 153.853 14.968 154.32 14.968 154.834V164.203C14.968 164.717 14.8364 165.184 14.5852 165.615C14.3339 166.045 13.987 166.38 13.5682 166.632C13.1494 166.883 12.6708 167.003 12.1683 167.003H2.79987ZM2.8596 164.478H12.0606C12.1683 164.478 12.264 164.442 12.3358 164.37C12.4076 164.298 12.4554 164.215 12.4554 164.095V154.894C12.4554 154.786 12.4195 154.691 12.3358 154.619C12.264 154.547 12.1683 154.511 12.0606 154.511H2.8596C2.76389 154.511 2.68017 154.547 2.59641 154.619C2.52463 154.691 2.47679 154.775 2.47679 154.894V164.095C2.47679 164.203 2.51266 164.298 2.59641 164.37C2.6682 164.442 2.76389 164.478 2.8596 164.478Z" fill="white"/>
<path d="M42.236 167.004V152.024C44.0427 152.024 45.7537 152.826 46.9143 154.214L50.6952 158.724L54.464 154.214C55.6246 152.826 57.3476 152.024 59.1543 152.024H59.1662V167.004H59.1423C57.7663 167.004 56.6417 165.891 56.6417 164.503V155.518L50.6952 162.613L44.7246 155.542V164.515C44.7246 165.891 43.612 167.016 42.224 167.016L42.236 167.004Z" fill="white"/>
<path d="M86.5537 167.004V152.024H100.313C100.313 153.412 99.1886 154.537 97.8006 154.537H89.0783V158.246H93.4335V160.782H89.0783V164.491H97.8006C99.1886 164.491 100.313 165.616 100.313 167.004H86.5537Z" fill="white"/>
<path d="M130.237 167.004C129.723 167.004 129.256 166.884 128.825 166.633C128.395 166.382 128.06 166.046 127.808 165.616C127.557 165.185 127.437 164.718 127.437 164.204V154.835C127.437 154.321 127.557 153.854 127.808 153.424C128.06 152.993 128.395 152.658 128.825 152.407C129.256 152.155 129.723 152.036 130.237 152.036H139.606C140.12 152.036 140.587 152.155 141.006 152.407C141.424 152.658 141.771 152.993 142.022 153.424C142.274 153.854 142.405 154.321 142.405 154.835V155.852H139.893V154.919C139.893 154.812 139.857 154.716 139.773 154.644C139.701 154.572 139.606 154.536 139.498 154.536H130.297C130.201 154.536 130.117 154.572 130.034 154.644C129.962 154.716 129.914 154.8 129.914 154.919V164.12C129.914 164.228 129.95 164.324 130.034 164.395C130.106 164.467 130.201 164.503 130.297 164.503H139.498C139.606 164.503 139.701 164.467 139.773 164.395C139.845 164.324 139.893 164.24 139.893 164.12V161.189H138.959C137.572 161.189 136.447 160.064 136.447 158.676H142.417V164.216C142.417 164.73 142.286 165.197 142.034 165.628C141.783 166.058 141.436 166.393 141.017 166.645C140.599 166.896 140.12 167.016 139.618 167.016H130.249L130.237 167.004Z" fill="white"/>
<path d="M184.306 153.412C184.055 152.981 183.708 152.646 183.289 152.395C182.87 152.144 182.392 152.024 181.889 152.024H172.521C172.006 152.024 171.54 152.144 171.109 152.395C170.678 152.646 170.343 152.981 170.092 153.412C169.841 153.843 169.721 154.309 169.721 154.824V166.992C171.097 166.992 172.222 165.879 172.222 164.491V154.896C172.222 154.788 172.257 154.692 172.341 154.62C172.413 154.549 172.509 154.513 172.604 154.513H181.805C181.913 154.513 182.009 154.549 182.081 154.62C182.152 154.692 182.2 154.776 182.2 154.896V164.491C182.2 165.867 183.313 166.992 184.701 166.992H184.725V154.824C184.725 154.309 184.593 153.843 184.342 153.412H184.306Z" fill="white"/>
<path d="M245.554 167.004V152.024C246.93 152.024 248.055 153.137 248.055 154.525V158.246H258.38V154.525C258.38 153.149 259.493 152.024 260.881 152.024V167.004C259.505 167.004 258.38 165.891 258.38 164.503V160.782H248.055V164.503C248.055 165.879 246.942 167.004 245.554 167.004Z" fill="white"/>
<path d="M288.256 167.004V152.024H302.016C302.016 153.412 300.891 154.537 299.503 154.537H290.781V158.246H299.838V160.782H290.781V164.491H299.503C300.891 164.491 302.016 165.616 302.016 167.004H288.256Z" fill="white"/>
<path d="M343.761 153.412C343.51 152.981 343.163 152.646 342.744 152.395C342.325 152.144 341.847 152.024 341.344 152.024H331.976C331.461 152.024 330.995 152.144 330.564 152.395C330.133 152.646 329.798 152.981 329.547 153.412C329.296 153.843 329.176 154.309 329.176 154.824V166.992C330.552 166.992 331.677 165.879 331.677 164.491V154.896C331.677 154.788 331.712 154.692 331.796 154.62C331.868 154.549 331.964 154.513 332.059 154.513H341.26C341.368 154.513 341.464 154.549 341.536 154.62C341.607 154.692 341.655 154.776 341.655 154.896V164.491C341.655 165.867 342.768 166.992 344.156 166.992H344.18V154.824C344.18 154.309 344.048 153.843 343.797 153.412H343.761Z" fill="white"/>
<path d="M371.507 167.004V152C372.883 152 374.008 153.113 374.008 154.501V164.491H383.974C385.362 164.491 386.487 165.616 386.487 167.004H371.507Z" fill="white"/>
<path d="M418.17 167.004V154.537H411.924V152.024H426.904V154.537H420.683V164.479C420.683 165.867 419.558 166.992 418.17 166.992V167.004Z" fill="white"/>
<path d="M453.454 167.004V152.024C454.83 152.024 455.955 153.137 455.955 154.525V158.246H466.28V154.525C466.28 153.149 467.393 152.024 468.781 152.024V167.004C467.405 167.004 466.28 165.891 466.28 164.503V160.782H455.955V164.503C455.955 165.879 454.842 167.004 453.454 167.004Z" fill="white"/>
<path d="M210.485 162.599C210.485 161.714 210.952 160.888 211.717 160.445L213.333 159.512L211.729 158.591C210.964 158.148 210.485 157.323 210.485 156.437L214.816 158.926V160.11L210.485 162.611V162.599Z" fill="white"/>
<path d="M219.507 162.601L215.187 160.1V158.927L219.507 156.427C219.507 157.312 219.04 158.126 218.274 158.568L216.659 159.502L218.274 160.435C219.04 160.878 219.507 161.691 219.507 162.577V162.601Z" fill="white"/>
<path d="M273.917 109.4C269.92 108.146 268.736 103.051 271.789 100.181C283.009 89.6258 291.533 74.0115 291.868 59.2911C292.361 44.7384 286.997 30.1501 277.259 19.3105C251.542 -9.37841 205.456 -5.53832 184.914 27.0872C174.679 43.1841 173.257 64.0303 181.323 81.3158C184.635 88.5236 189.527 94.9948 195.505 100.201C198.746 103.025 197.674 108.339 193.56 109.583C180.262 113.601 165.333 112.184 153 105.464C165.247 114.861 181.887 117.98 196.897 114.282C202.007 113.037 206.964 111.036 211.556 108.344L216.468 105.464L211.302 102.431C195.459 93.2373 185.514 75.576 186.662 57.2136C187.068 49.3963 189.466 41.6501 193.549 34.9807C208.234 10.9141 240.433 4.80859 262.808 22.023C277.706 33.4162 284.452 52.7386 280.124 70.9587C277.691 81.4072 271.636 90.9109 263.362 97.7327C260.035 100.572 255.28 103.224 251.486 105.448L256.413 108.344C269.93 116.379 287.002 118.071 301.717 112.687C306.517 110.949 311.023 108.511 315 105.464C302.515 112.265 287.342 113.616 273.917 109.4Z" fill="white"/>
<path d="M239.163 23.5163C230.335 22.5867 221.304 25.1417 214.38 30.6682C205.618 37.7134 200.94 48.9797 202.317 60.1495C203.978 75.1797 216.458 87.3349 231.483 88.7369C244.146 89.9458 256.317 83.759 262.844 72.833C265.998 67.5757 267.629 61.3838 267.542 55.2174C267.537 53.4294 267.37 51.6414 267.085 49.8534C270.9 61.8918 266.897 75.6013 257.414 84.079C256.037 85.3082 254.473 86.5476 252.919 87.5432C252.263 87.9953 251.171 88.5946 250.47 89.001C250.023 89.2194 248.982 89.7528 248.555 89.961C248.159 90.1287 247.001 90.6264 246.579 90.7991C237.563 94.2532 227.374 93.9687 218.632 89.834C205.7 83.7844 197.41 70.598 197.852 56.2942C198.141 43.3568 205.857 31.1812 217.636 25.7309C224.296 22.6274 232.011 21.7486 239.148 23.5163H239.163Z" fill="white"/>
</svg>
