<svg width="162" height="116" viewBox="0 0 162 116" fill="none" xmlns="http://www.w3.org/2000/svg">
<path d="M120.917 109.4C116.92 108.146 115.736 103.051 118.789 100.181C130.009 89.6258 138.533 74.0115 138.868 59.2911C139.361 44.7384 133.997 30.1501 124.259 19.3105C98.542 -9.37841 52.4558 -5.53832 31.9144 27.0872C21.6792 43.1841 20.257 64.0303 28.3232 81.3158C31.635 88.5236 36.5266 94.9948 42.5051 100.201C45.7458 103.025 44.6741 108.339 40.5597 109.583C27.2616 113.601 12.333 112.184 0 105.464C12.2466 114.861 28.887 117.979 43.8969 114.282C49.0069 113.037 53.9644 111.036 58.5563 108.344L63.4682 105.464L58.3023 102.431C42.4594 93.2373 32.5138 75.576 33.6617 57.2136C34.0681 49.3963 36.4656 41.6501 40.5495 34.9807C55.2343 10.9141 87.4332 4.80859 109.808 22.023C124.706 33.4162 131.452 52.7386 127.124 70.9587C124.691 81.4072 118.636 90.9109 110.362 97.7327C107.035 100.572 102.281 103.224 98.4861 105.448L103.413 108.344C116.93 116.379 134.002 118.071 148.717 112.687C153.517 110.95 158.023 108.511 162 105.464C149.515 112.265 134.342 113.616 120.917 109.4Z" fill="url(#paint0_linear_4_141)"/>
<path d="M86.1633 23.5163C77.3351 22.5867 68.3038 25.1417 61.3804 30.6682C52.6183 37.7134 47.9401 48.9797 49.3167 60.1495C50.9777 75.1797 63.458 87.3349 78.4831 88.7369C91.1462 89.9458 103.317 83.759 109.844 72.833C112.998 67.5757 114.629 61.3838 114.542 55.2173C114.537 53.4294 114.37 51.6414 114.085 49.8534C117.9 61.8918 113.897 75.6013 104.414 84.079C103.037 85.3082 101.473 86.5476 99.9185 87.5432C99.2632 87.9953 98.1712 88.5946 97.4702 89.001C97.0232 89.2194 95.9819 89.7528 95.5552 89.961C95.159 90.1286 94.0009 90.6264 93.5793 90.7991C84.5632 94.2532 74.3738 93.9687 65.632 89.834C52.6996 83.7844 44.4099 70.598 44.8518 56.2942C45.1413 43.3567 52.8571 31.1812 64.6364 25.7309C71.2956 22.6274 79.0113 21.7486 86.148 23.5163H86.1633Z" fill="url(#paint1_linear_4_141)"/>
<defs>
<linearGradient id="paint0_linear_4_141" x1="0" y1="57.8994" x2="162" y2="57.8994" gradientUnits="userSpaceOnUse">
<stop stop-color="#38CDF6"/>
<stop offset="1" stop-color="#48E5FD"/>
</linearGradient>
<linearGradient id="paint1_linear_4_141" x1="44.8518" y1="57.8993" x2="115.523" y2="57.8993" gradientUnits="userSpaceOnUse">
<stop stop-color="#38CDF6"/>
<stop offset="1" stop-color="#48E5FD"/>
</linearGradient>
</defs>
</svg>

